<?xml version="1.0" encoding="UTF-8"?>
<svg xmlns="http://www.w3.org/2000/svg" width="1920" height="1080" viewBox="0 0 1920 1080">
  <defs>
    <style type="text/css"><![CDATA[
      @import url('https://fonts.googleapis.com/css2?family=Poppins:wght@300;400;500;600;700;800;900&display=swap');
      text { font-family: 'Poppins', -apple-system, BlinkMacSystemFont, 'Segoe UI', sans-serif; }
    ]]></style>
    <filter id="f-phone">
      <feDropShadow dx="0" dy="24" stdDeviation="40" flood-color="#000" flood-opacity="0.35"/>
    </filter>
    <filter id="f-browser">
      <feDropShadow dx="0" dy="16" stdDeviation="32" flood-color="#000" flood-opacity="0.25"/>
    </filter>
    <filter id="f-card">
      <feDropShadow dx="0" dy="4" stdDeviation="12" flood-color="#000" flood-opacity="0.07"/>
    </filter>
    <filter id="f-btn">
      <feDropShadow dx="0" dy="8" stdDeviation="18" flood-color="#22d3ee" flood-opacity="0.45"/>
    </filter>
    <filter id="f-panel">
      <feDropShadow dx="0" dy="6" stdDeviation="16" flood-color="#010b2f" flood-opacity="0.2"/>
    </filter>
    <linearGradient id="g-nav" x1="0%" y1="0%" x2="100%" y2="0%">
      <stop offset="0%" stop-color="#010b2f"/>
      <stop offset="100%" stop-color="#001f73"/>
    </linearGradient>
    <linearGradient id="g-sidebar" x1="0%" y1="0%" x2="0%" y2="100%">
      <stop offset="0%" stop-color="#010b2f"/>
      <stop offset="100%" stop-color="#001550"/>
    </linearGradient>
    <linearGradient id="g-btn" x1="0%" y1="0%" x2="100%" y2="0%">
      <stop offset="0%" stop-color="#22d3ee"/>
      <stop offset="100%" stop-color="#0ea5e9"/>
    </linearGradient>
    <linearGradient id="g-canvas" x1="0%" y1="0%" x2="0%" y2="100%">
      <stop offset="0%" stop-color="#dde4f0"/>
      <stop offset="100%" stop-color="#e8edf5"/>
    </linearGradient>
    <linearGradient id="g-panel-header" x1="0%" y1="0%" x2="100%" y2="100%">
      <stop offset="0%" stop-color="#22d3ee"/>
      <stop offset="100%" stop-color="#0284c7"/>
    </linearGradient>
    <radialGradient id="g-glow" cx="50%" cy="0%" r="80%">
      <stop offset="0%" stop-color="rgba(34,211,238,0.12)"/>
      <stop offset="100%" stop-color="rgba(34,211,238,0)"/>
    </radialGradient>
  </defs>

  <!-- ░░ CANVAS ░░ -->
  <rect width="1920" height="1080" fill="url(#g-canvas)"/>

  <!-- Screen label -->
  <text x="960" y="34" font-size="11" font-weight="700" fill="#64748b" text-anchor="middle" letter-spacing="4">PANTALLA 01 — REGISTRO DE MASCOTA · MOBILE-FIRST</text>
  <line x1="400" y1="40" x2="740" y2="40" stroke="#e2e8f0" stroke-width="1"/>
  <circle cx="960" cy="40" r="4" fill="#22d3ee"/>
  <line x1="1180" y1="40" x2="1520" y2="40" stroke="#e2e8f0" stroke-width="1"/>
  <text x="220" y="60" font-size="11" font-weight="600" fill="#94a3b8" text-anchor="middle">📱  Mobile  ·  390 px</text>
  <text x="1260" y="60" font-size="11" font-weight="600" fill="#94a3b8" text-anchor="middle">🖥  Desktop  ·  1280 px  ·  Con Sidebar</text>

  <!-- ═══════════════════════════════════════════
       MOBILE FRAME  x=28  y=72  w=396  h=920
       ═══════════════════════════════════════════ -->

  <!-- Phone body + shadow -->
  <rect x="28" y="72" width="396" height="920" rx="44" fill="#0f172a" filter="url(#f-phone)"/>
  <!-- Side buttons -->
  <rect x="26" y="260" width="4" height="64" rx="2" fill="#1e293b"/>
  <rect x="26" y="344" width="4" height="64" rx="2" fill="#1e293b"/>
  <rect x="420" y="310" width="4" height="90" rx="2" fill="#1e293b"/>
  <!-- Screen -->
  <rect x="40" y="84" width="372" height="896" rx="36" fill="#f4f7fb"/>
  <!-- Notch -->
  <rect x="156" y="84" width="140" height="34" rx="0" fill="#0f172a"/>
  <rect x="156" y="88" width="140" height="30" rx="15" fill="#0f172a"/>
  <circle cx="226" cy="103" r="6" fill="#0f172a" stroke="#1e293b" stroke-width="1.5"/>

  <!-- Status bar -->
  <rect x="40" y="84" width="372" height="52" fill="#010b2f" rx="0"/>
  <rect x="40" y="84" width="372" height="18" rx="18" fill="#010b2f"/>
  <text x="64" y="126" font-size="12" font-weight="600" fill="#fff">9:41</text>
  <!-- Battery icon -->
  <rect x="366" y="116" width="28" height="14" rx="3" fill="none" stroke="#fff" stroke-width="1.5"/>
  <rect x="394" y="119" width="3" height="8" rx="1.5" fill="#fff"/>
  <rect x="368" y="118" width="20" height="10" rx="2" fill="#22d3ee"/>

  <!-- App header (mobile) -->
  <rect x="40" y="136" width="372" height="68" fill="url(#g-nav)"/>
  <rect x="40" y="202" width="372" height="3" fill="#22d3ee" opacity="0.6"/>
  <!-- Glow spot -->
  <ellipse cx="350" cy="136" rx="100" ry="50" fill="url(#g-glow)"/>
  <!-- Back arrow (chevron) -->
  <path d="M72,170 L62,177 L72,184" fill="none" stroke="#22d3ee" stroke-width="2.5" stroke-linecap="round" stroke-linejoin="round"/>
  <line x1="62" y1="177" x2="84" y2="177" stroke="#22d3ee" stroke-width="2.5" stroke-linecap="round"/>
  <!-- Title -->
  <text x="226" y="172" font-size="16" font-weight="700" fill="#fff" text-anchor="middle">Registrar Mascota</text>
  <text x="226" y="190" font-size="10" fill="rgba(34,211,238,0.8)" text-anchor="middle">Nueva ficha clínica</text>
  <!-- Avatar -->
  <circle cx="388" cy="170" r="20" fill="rgba(34,211,238,0.15)" stroke="#22d3ee" stroke-width="1.5"/>
  <text x="388" y="175" font-size="12" font-weight="700" fill="#22d3ee" text-anchor="middle">VE</text>

  <!-- Step indicator -->
  <rect x="40" y="205" width="372" height="38" fill="white"/>
  <text x="86" y="230" font-size="10" fill="#64748b">Paso 1 de 2</text>
  <!-- Step bar -->
  <rect x="148" y="221" width="200" height="6" rx="3" fill="#e2e8f0"/>
  <rect x="148" y="221" width="110" height="6" rx="3" fill="#22d3ee"/>
  <text x="360" y="230" font-size="10" fill="#22d3ee" font-weight="600">50%</text>

  <!-- Form content area -->
  <rect x="40" y="243" width="372" height="737" fill="#f4f7fb"/>

  <!-- Section A: Mascota -->
  <rect x="52" y="256" width="8" height="28" rx="4" fill="#22d3ee"/>
  <text x="70" y="275" font-size="13" font-weight="700" fill="#0f172a">Información de la Mascota</text>

  <!-- Field: Nombre -->
  <text x="52" y="308" font-size="9" font-weight="700" fill="#64748b" letter-spacing="2">NOMBRE DEL ANIMAL *</text>
  <rect x="52" y="316" width="348" height="48" rx="12" fill="white" stroke="#e2e8f0" stroke-width="1.5"/>
  <text x="72" y="345" font-size="13" fill="#94a3b8">ej. Max, Luna, Coco...</text>

  <!-- Field: Especie (active) -->
  <text x="52" y="380" font-size="9" font-weight="700" fill="#22d3ee" letter-spacing="2">ESPECIE *</text>
  <rect x="50" y="386" width="352" height="50" rx="12" fill="white" stroke="#22d3ee" stroke-width="2.5"/>
  <rect x="48" y="384" width="356" height="54" rx="14" fill="none" stroke="rgba(34,211,238,0.2)" stroke-width="5"/>
  <text x="72" y="416" font-size="13" font-weight="600" fill="#0f172a">Perro</text>
  <!-- Cursor blink -->
  <rect x="116" y="404" width="2" height="22" rx="1" fill="#22d3ee"/>
  <!-- Chevron -->
  <path d="M372,409 L384,409 L378,420" fill="#64748b"/>

  <!-- Field: Raza -->
  <text x="52" y="454" font-size="9" font-weight="700" fill="#64748b" letter-spacing="2">RAZA</text>
  <rect x="52" y="462" width="348" height="48" rx="12" fill="white" stroke="#e2e8f0" stroke-width="1.5"/>
  <text x="72" y="491" font-size="13" fill="#94a3b8">ej. Labrador, Siamés...</text>

  <!-- Field: Fecha de nacimiento -->
  <text x="52" y="526" font-size="9" font-weight="700" fill="#64748b" letter-spacing="2">FECHA DE NACIMIENTO *</text>
  <rect x="52" y="534" width="348" height="48" rx="12" fill="white" stroke="#e2e8f0" stroke-width="1.5"/>
  <text x="72" y="563" font-size="13" fill="#94a3b8">DD / MM / AAAA</text>
  <!-- Calendar icon (minimal) -->
  <rect x="370" y="548" width="22" height="20" rx="5" fill="none" stroke="#94a3b8" stroke-width="1.5"/>
  <line x1="370" y1="554" x2="392" y2="554" stroke="#94a3b8" stroke-width="1.5"/>
  <line x1="376" y1="546" x2="376" y2="550" stroke="#94a3b8" stroke-width="1.5"/>
  <line x1="386" y1="546" x2="386" y2="550" stroke="#94a3b8" stroke-width="1.5"/>

  <!-- Age auto-calc pill -->
  <rect x="52" y="592" width="150" height="28" rx="14" fill="#f0fdf4" stroke="#10b981" stroke-width="1"/>
  <circle cx="68" cy="606" r="7" fill="#10b981"/>
  <text x="68" y="610" font-size="9" fill="white" text-anchor="middle">✓</text>
  <text x="130" y="611" font-size="10" font-weight="600" fill="#065f46" text-anchor="middle">Edad: 3 años</text>
  <text x="218" y="611" font-size="9" fill="#94a3b8">cálculo automático</text>

  <!-- Divider with label -->
  <line x1="52" y1="636" x2="400" y2="636" stroke="#e2e8f0" stroke-width="1" stroke-dasharray="4,4"/>

  <!-- Section B: Propietario -->
  <rect x="52" y="648" width="8" height="28" rx="4" fill="#10b981"/>
  <text x="70" y="667" font-size="13" font-weight="700" fill="#0f172a">Datos del Propietario</text>

  <!-- Field: Propietario -->
  <text x="52" y="706" font-size="9" font-weight="700" fill="#64748b" letter-spacing="2">NOMBRE COMPLETO *</text>
  <rect x="52" y="714" width="348" height="48" rx="12" fill="white" stroke="#e2e8f0" stroke-width="1.5"/>
  <text x="72" y="743" font-size="13" fill="#94a3b8">Nombre del propietario</text>

  <!-- Security note -->
  <text x="226" y="782" font-size="9" fill="#94a3b8" text-anchor="middle">🔒  HTTPS · Datos enviados cifrados a Supabase</text>

  <!-- Save button -->
  <rect x="52" y="792" width="348" height="56" rx="16" fill="url(#g-btn)" filter="url(#f-btn)"/>
  <text x="226" y="824" font-size="15" font-weight="800" fill="#fff" text-anchor="middle">Guardar Mascota</text>
  <text x="226" y="840" font-size="10" fill="rgba(255,255,255,0.7)" text-anchor="middle">Enviar a Supabase</text>

  <!-- Cancel -->
  <text x="226" y="872" font-size="12" fill="#94a3b8" text-anchor="middle">← Cancelar</text>

  <!-- Home indicator -->
  <rect x="186" y="958" width="100" height="5" rx="2.5" fill="#1e293b" opacity="0.2"/>


  <!-- ═══════════════════════════════════════════════════════
       DESKTOP BROWSER FRAME  x=472  y=72  w=1420  h=924
       ═══════════════════════════════════════════════════════ -->

  <!-- Browser shadow -->
  <rect x="476" y="88" width="1420" height="924" rx="14" fill="#000" opacity="0.12" transform="translate(0,8)"/>
  <!-- Browser body -->
  <rect x="476" y="72" width="1420" height="924" rx="16" fill="#1e293b" filter="url(#f-browser)"/>
  <!-- Chrome bar -->
  <rect x="476" y="72" width="1420" height="46" rx="16" fill="#2d3748"/>
  <rect x="476" y="96" width="1420" height="22" fill="#2d3748"/>
  <!-- Traffic lights -->
  <circle cx="506" cy="95" r="7" fill="#ef4444"/>
  <circle cx="530" cy="95" r="7" fill="#f59e0b"/>
  <circle cx="554" cy="95" r="7" fill="#10b981"/>
  <!-- URL bar -->
  <rect x="630" y="82" width="820" height="26" rx="13" fill="#1a202c"/>
  <text x="656" y="100" font-size="11" fill="#475569">🔒</text>
  <text x="674" y="100" font-size="11" fill="#94a3b8">vetcare.app/mascotas/nueva</text>

  <!-- Page background -->
  <rect x="476" y="118" width="1420" height="878" rx="0" fill="#f4f7fb"/>
  <rect x="476" y="962" width="1420" height="34" rx="16" fill="#f4f7fb"/>

  <!-- ── SIDEBAR (desktop) ── -->
  <rect x="476" y="118" width="240" height="878" fill="url(#g-sidebar)" filter="url(#f-panel)"/>

  <!-- Sidebar logo -->
  <rect x="476" y="118" width="240" height="80" fill="rgba(255,255,255,0.04)"/>
  <rect x="498" y="135" width="40" height="40" rx="11" fill="#22d3ee"/>
  <text x="518" y="162" font-size="20" font-weight="900" fill="#010b2f" text-anchor="middle">V</text>
  <text x="550" y="151" font-size="15" font-weight="800" fill="#fff">PetCare</text>
  <text x="550" y="168" font-size="11" fill="#22d3ee" letter-spacing="1">Intelligence</text>

  <!-- Nav items -->
  <!-- Dashboard (inactive) -->
  <rect x="498" y="224" width="200" height="38" rx="8" fill="transparent"/>
  <rect x="506" y="234" width="16" height="16" rx="4" fill="none" stroke="#64748b" stroke-width="1.5"/>
  <rect x="510" y="238" width="4" height="4" rx="1" fill="#64748b"/>
  <rect x="516" y="238" width="4" height="4" rx="1" fill="#64748b"/>
  <text x="532" y="247" font-size="13" fill="#64748b">Dashboard</text>

  <!-- Mascotas (ACTIVE) -->
  <rect x="498" y="272" width="200" height="40" rx="10" fill="rgba(34,211,238,0.12)"/>
  <rect x="498" y="272" width="5" height="40" rx="3" fill="#22d3ee"/>
  <!-- Paw icon -->
  <circle cx="521" cy="292" r="5" fill="#22d3ee"/>
  <circle cx="513" cy="286" r="3" fill="#22d3ee"/>
  <circle cx="529" cy="286" r="3" fill="#22d3ee"/>
  <circle cx="510" cy="298" r="2.5" fill="#22d3ee"/>
  <circle cx="532" cy="298" r="2.5" fill="#22d3ee"/>
  <text x="542" y="296" font-size="13" font-weight="600" fill="#22d3ee">Mascotas</text>
  <!-- Active count badge -->
  <rect x="658" y="278" width="26" height="20" rx="10" fill="rgba(34,211,238,0.2)"/>
  <text x="671" y="293" font-size="10" font-weight="700" fill="#22d3ee" text-anchor="middle">4</text>

  <!-- Inventario (inactive) -->
  <rect x="498" y="326" width="200" height="38" rx="8" fill="transparent"/>
  <rect x="506" y="336" width="18" height="14" rx="3" fill="none" stroke="#64748b" stroke-width="1.5"/>
  <line x1="506" y1="342" x2="524" y2="342" stroke="#64748b" stroke-width="1.5"/>
  <text x="532" y="347" font-size="13" fill="#64748b">Inventario</text>
  <!-- Alert badge -->
  <rect x="636" y="332" width="30" height="20" rx="10" fill="#ef4444"/>
  <text x="651" y="347" font-size="10" font-weight="700" fill="#fff" text-anchor="middle">!3</text>

  <!-- Citas (inactive) -->
  <rect x="498" y="378" width="200" height="38" rx="8" fill="transparent"/>
  <rect x="506" y="388" width="18" height="18" rx="5" fill="none" stroke="#64748b" stroke-width="1.5"/>
  <line x1="506" y1="394" x2="524" y2="394" stroke="#64748b" stroke-width="1"/>
  <text x="532" y="401" font-size="13" fill="#64748b">Citas</text>

  <!-- Reportes (inactive) -->
  <rect x="498" y="430" width="200" height="38" rx="8" fill="transparent"/>
  <path d="M506,444 L516,440 L516,452 L506,452 Z" fill="none" stroke="#64748b" stroke-width="1.5"/>
  <line x1="520" y1="441" x2="524" y2="441" stroke="#64748b" stroke-width="1.5"/>
  <line x1="520" y1="446" x2="524" y2="446" stroke="#64748b" stroke-width="1.5"/>
  <text x="532" y="453" font-size="13" fill="#64748b">Reportes</text>

  <!-- Sidebar separator -->
  <line x1="498" y1="488" x2="688" y2="488" stroke="rgba(255,255,255,0.08)" stroke-width="1"/>

  <!-- Configuración -->
  <rect x="498" y="500" width="200" height="38" rx="8" fill="transparent"/>
  <circle cx="515" cy="519" r="7" fill="none" stroke="#64748b" stroke-width="1.5"/>
  <circle cx="515" cy="519" r="3" fill="#64748b"/>
  <text x="532" y="523" font-size="13" fill="#64748b">Configuración</text>

  <!-- User section (bottom) -->
  <rect x="476" y="958" width="240" height="38" rx="0" fill="rgba(0,0,0,0.2)"/>
  <rect x="476" y="958" width="240" height="38" rx="0"/>
  <rect x="476" y="958" width="240" height="38" fill="rgba(255,255,255,0.03)"/>
  <circle cx="502" cy="977" r="16" fill="rgba(34,211,238,0.15)" stroke="#22d3ee" stroke-width="1.5"/>
  <text x="502" y="982" font-size="10" font-weight="700" fill="#22d3ee" text-anchor="middle">VE</text>
  <text x="524" y="971" font-size="12" font-weight="600" fill="#fff">Dr. Veterinario</text>
  <text x="524" y="985" font-size="10" fill="#64748b">Administrador</text>
  <circle cx="694" cy="977" r="5" fill="#10b981"/>

  <!-- ── MAIN CONTENT (desktop) ── -->
  <!-- Top nav bar -->
  <rect x="716" y="118" width="1180" height="68" fill="white"/>
  <line x1="716" y1="186" x2="1896" y2="186" stroke="#f1f5f9" stroke-width="1.5"/>

  <!-- Breadcrumb -->
  <text x="740" y="148" font-size="12" fill="#94a3b8">Mascotas</text>
  <text x="806" y="148" font-size="12" fill="#94a3b8"> / </text>
  <text x="822" y="148" font-size="12" font-weight="600" fill="#0f172a">Nueva Mascota</text>

  <!-- Page title -->
  <text x="740" y="174" font-size="24" font-weight="800" fill="#0f172a">Registrar Nueva Mascota</text>

  <!-- User & action top right -->
  <rect x="1760" y="130" width="112" height="42" rx="12" fill="url(#g-btn)" filter="url(#f-btn)"/>
  <text x="1816" y="156" font-size="13" font-weight="700" fill="#fff" text-anchor="middle">Guardar</text>

  <!-- Progress steps (desktop) -->
  <rect x="716" y="186" width="1180" height="56" fill="#fafbfd"/>
  <line x1="716" y1="242" x2="1896" y2="242" stroke="#f1f5f9" stroke-width="1"/>
  <!-- Step 1 (active) -->
  <circle cx="770" cy="214" r="16" fill="#22d3ee" filter="url(#f-btn)"/>
  <text x="770" y="219" font-size="12" font-weight="700" fill="#fff" text-anchor="middle">1</text>
  <text x="800" y="212" font-size="13" font-weight="700" fill="#22d3ee">Datos del Animal</text>
  <text x="800" y="226" font-size="10" fill="#64748b">Nombre, especie, raza</text>
  <!-- Connector -->
  <line x1="894" y1="214" x2="1020" y2="214" stroke="#e2e8f0" stroke-width="2" stroke-dasharray="6,4"/>
  <!-- Step 2 (pending) -->
  <circle cx="1040" cy="214" r="16" fill="white" stroke="#e2e8f0" stroke-width="2"/>
  <text x="1040" y="219" font-size="12" font-weight="700" fill="#94a3b8" text-anchor="middle">2</text>
  <text x="1070" y="212" font-size="13" font-weight="600" fill="#94a3b8">Datos del Propietario</text>
  <text x="1070" y="226" font-size="10" fill="#94a3b8">Nombre del dueño</text>

  <!-- ── FORM CARD (main, desktop) ── -->
  <rect x="732" y="258" width="840" height="600" rx="20" fill="white" filter="url(#f-card)"/>

  <!-- Form section A -->
  <rect x="764" y="284" width="8" height="28" rx="4" fill="#22d3ee"/>
  <text x="784" y="303" font-size="14" font-weight="700" fill="#0f172a">Información de la Mascota</text>

  <!-- Row 1: Nombre + Especie -->
  <text x="764" y="348" font-size="10" font-weight="700" fill="#64748b" letter-spacing="2">NOMBRE DEL ANIMAL *</text>
  <rect x="764" y="356" width="376" height="50" rx="12" fill="#f8fafc" stroke="#e2e8f0" stroke-width="1.5"/>
  <text x="786" y="386" font-size="13" fill="#94a3b8">ej. Max, Luna, Coco...</text>

  <text x="1164" y="348" font-size="10" font-weight="700" fill="#22d3ee" letter-spacing="2">ESPECIE *</text>
  <rect x="1162" y="354" width="376" height="52" rx="12" fill="white" stroke="#22d3ee" stroke-width="2"/>
  <rect x="1160" y="352" width="380" height="56" rx="14" fill="none" stroke="rgba(34,211,238,0.2)" stroke-width="5"/>
  <text x="1184" y="384" font-size="13" font-weight="600" fill="#0f172a">Perro</text>
  <rect x="1236" y="372" width="2" height="22" rx="1" fill="#22d3ee"/>
  <path d="M1502,378 L1514,378 L1508,390" fill="#64748b"/>

  <!-- Row 2: Raza + Fecha -->
  <text x="764" y="430" font-size="10" font-weight="700" fill="#64748b" letter-spacing="2">RAZA ESPECÍFICA</text>
  <rect x="764" y="438" width="376" height="50" rx="12" fill="#f8fafc" stroke="#e2e8f0" stroke-width="1.5"/>
  <text x="786" y="468" font-size="13" fill="#94a3b8">ej. Labrador Retriever...</text>

  <text x="1164" y="430" font-size="10" font-weight="700" fill="#64748b" letter-spacing="2">FECHA DE NACIMIENTO *</text>
  <rect x="1162" y="438" width="376" height="50" rx="12" fill="#f8fafc" stroke="#e2e8f0" stroke-width="1.5"/>
  <text x="1184" y="468" font-size="13" fill="#94a3b8">DD / MM / AAAA</text>
  <!-- Calendar -->
  <rect x="1506" y="450" width="22" height="20" rx="5" fill="none" stroke="#94a3b8" stroke-width="1.5"/>
  <line x1="1506" y1="456" x2="1528" y2="456" stroke="#94a3b8" stroke-width="1.5"/>
  <line x1="1512" y1="448" x2="1512" y2="452" stroke="#94a3b8" stroke-width="1.5"/>
  <line x1="1522" y1="448" x2="1522" y2="452" stroke="#94a3b8" stroke-width="1.5"/>

  <!-- Age chip (auto-calc) -->
  <rect x="1162" y="496" width="220" height="30" rx="15" fill="#f0fdf4" stroke="#10b981" stroke-width="1"/>
  <circle cx="1182" cy="511" r="9" fill="#10b981"/>
  <text x="1182" y="515" font-size="9" fill="#fff" text-anchor="middle">✓</text>
  <text x="1272" y="515" font-size="11" font-weight="600" fill="#065f46" text-anchor="middle">Edad: 3 años 2 meses</text>

  <!-- Section divider -->
  <line x1="764" y1="544" x2="1552" y2="544" stroke="#f1f5f9" stroke-width="2"/>

  <!-- Form section B -->
  <rect x="764" y="558" width="8" height="28" rx="4" fill="#10b981"/>
  <text x="784" y="577" font-size="14" font-weight="700" fill="#0f172a">Datos del Propietario</text>

  <!-- Row 3: Propietario (full width) -->
  <text x="764" y="622" font-size="10" font-weight="700" fill="#64748b" letter-spacing="2">NOMBRE COMPLETO DEL PROPIETARIO *</text>
  <rect x="764" y="630" width="774" height="50" rx="12" fill="#f8fafc" stroke="#e2e8f0" stroke-width="1.5"/>
  <text x="786" y="660" font-size="13" fill="#94a3b8">Nombre completo del dueño del animal</text>

  <!-- Security note -->
  <rect x="764" y="694" width="774" height="36" rx="10" fill="#f8fafc"/>
  <text x="786" y="717" font-size="11" fill="#94a3b8">🔒  Datos transmitidos de forma segura vía HTTPS a Supabase PostgreSQL</text>

  <!-- Action buttons -->
  <rect x="764" y="744" width="180" height="50" rx="14" fill="none" stroke="#e2e8f0" stroke-width="1.5"/>
  <text x="854" y="774" font-size="14" fill="#64748b" text-anchor="middle">Cancelar</text>

  <rect x="964" y="744" width="240" height="50" rx="14" fill="url(#g-btn)" filter="url(#f-btn)"/>
  <text x="1084" y="774" font-size="14" font-weight="700" fill="#fff" text-anchor="middle">Guardar Mascota →</text>

  <!-- ── INFO PANEL (right, desktop) ── -->
  <rect x="1590" y="258" width="290" height="600" rx="20" fill="white" filter="url(#f-card)"/>

  <!-- Panel header -->
  <rect x="1590" y="258" width="290" height="88" rx="20" fill="url(#g-panel-header)"/>
  <rect x="1590" y="310" width="290" height="36" fill="url(#g-panel-header)"/>
  <!-- Pattern overlay -->
  <circle cx="1840" cy="268" r="60" fill="rgba(255,255,255,0.06)"/>
  <circle cx="1860" cy="300" r="40" fill="rgba(255,255,255,0.04)"/>
  <text x="1735" y="292" font-size="15" font-weight="700" fill="#fff" text-anchor="middle">Guía de Registro</text>
  <text x="1735" y="310" font-size="11" fill="rgba(255,255,255,0.7)" text-anchor="middle">¿Qué se guarda?</text>

  <!-- Checklist items -->
  <circle cx="1622" cy="374" r="10" fill="#22d3ee"/>
  <text x="1622" y="378" font-size="10" fill="#fff" text-anchor="middle">✓</text>
  <text x="1644" y="370" font-size="12" font-weight="600" fill="#0f172a">Nombre del animal</text>
  <text x="1644" y="385" font-size="11" fill="#64748b">Identifica la mascota</text>

  <circle cx="1622" cy="416" r="10" fill="#22d3ee"/>
  <text x="1622" y="420" font-size="10" fill="#fff" text-anchor="middle">✓</text>
  <text x="1644" y="412" font-size="12" font-weight="600" fill="#0f172a">Especie y raza</text>
  <text x="1644" y="427" font-size="11" fill="#64748b">Para protocolos específicos</text>

  <circle cx="1622" cy="458" r="10" fill="#22d3ee"/>
  <text x="1622" y="462" font-size="10" fill="#fff" text-anchor="middle">✓</text>
  <text x="1644" y="454" font-size="12" font-weight="600" fill="#0f172a">Fecha de nacimiento</text>
  <text x="1644" y="469" font-size="11" fill="#64748b">→ Edad calculada automático</text>

  <circle cx="1622" cy="500" r="10" fill="#10b981"/>
  <text x="1622" y="504" font-size="10" fill="#fff" text-anchor="middle">✓</text>
  <text x="1644" y="496" font-size="12" font-weight="600" fill="#0f172a">Propietario</text>
  <text x="1644" y="511" font-size="11" fill="#64748b">Contacto responsable</text>

  <!-- Separator -->
  <line x1="1610" y1="530" x2="1870" y2="530" stroke="#f1f5f9" stroke-width="1.5"/>

  <!-- Info box -->
  <rect x="1610" y="548" width="260" height="52" rx="12" fill="#fffbeb" stroke="#f59e0b" stroke-width="1"/>
  <text x="1630" y="568" font-size="11" font-weight="600" fill="#92400e">ℹ  HTTPS Cifrado</text>
  <text x="1630" y="584" font-size="10" fill="#b45309">Supabase PostgreSQL seguro</text>

  <!-- Database icon block -->
  <rect x="1610" y="616" width="260" height="80" rx="12" fill="#f8fafc"/>
  <text x="1740" y="648" font-size="28" text-anchor="middle" opacity="0.2">🗄</text>
  <text x="1740" y="672" font-size="11" fill="#94a3b8" text-anchor="middle">tabla: mascotas</text>
  <text x="1740" y="686" font-size="11" fill="#94a3b8" text-anchor="middle">supabase.co</text>

  <!-- Verify badge -->
  <rect x="1650" y="710" width="180" height="34" rx="17" fill="#f0fdf4" stroke="#10b981" stroke-width="1"/>
  <circle cx="1672" cy="727" r="9" fill="#10b981"/>
  <text x="1672" y="731" font-size="9" fill="#fff" text-anchor="middle">✓</text>
  <text x="1750" y="732" font-size="11" font-weight="600" fill="#065f46" text-anchor="middle">Conexión Activa</text>

  <!-- ── ANNOTATION CALLOUT ── -->
  <rect x="1590" y="876" width="290" height="72" rx="14" fill="#0f172a"/>
  <rect x="1590" y="876" width="290" height="4" rx="3" fill="#22d3ee"/>
  <text x="1610" y="900" font-size="11" font-weight="700" fill="#22d3ee">Notas de Implementación</text>
  <text x="1610" y="916" font-size="10" fill="#64748b">· Campo especie: select con opciones</text>
  <text x="1610" y="930" font-size="10" fill="#64748b">· Fecha: date-picker nativo del SO</text>
  <text x="1610" y="944" font-size="10" fill="#64748b">· Edad: derivada en tiempo real (JS)</text>

</svg>
